<?xml version="1.0" encoding="utf-8"?>
<!-- Generator: Adobe Illustrator 26.0.1, SVG Export Plug-In . SVG Version: 6.00 Build 0)  -->
<svg version="1.1" id="Layer_1" xmlns="http://www.w3.org/2000/svg" xmlns:xlink="http://www.w3.org/1999/xlink" x="0px" y="0px"
	 viewBox="0 0 21.4 27" style="enable-background:new 0 0 21.4 27;" xml:space="preserve">
<style type="text/css">
	.st0{fill:#693BFE;}
</style>
<g id="Group_10916" transform="translate(0 0)">
	<g id="Group_1429" transform="translate(0 6.323)">
		<path id="Path_7187" class="st0" d="M1.1,3.5c-2.2,4-0.8,10,1.6,13.7C4,19,5.2,20.7,6.9,20.7H7c0.7,0,1.3-0.2,1.9-0.5
			c0.7-0.4,1.5-0.6,2.3-0.6c0.8,0,1.5,0.2,2.2,0.5c0.6,0.3,1.4,0.5,2.1,0.5c1.9,0,3.1-1.8,4.1-3.4c0.8-1.2,1.4-2.5,1.8-3.8l0,0
			c0-0.1,0-0.2-0.1-0.3l0,0c-2-0.9-3.3-3-3.3-5.2c0-2,1-3.8,2.7-4.9l0,0c0,0,0.1-0.1,0.1-0.1c0-0.1,0-0.1,0-0.2
			c-1.1-1.6-2.9-2.7-4.9-2.7c-0.1,0-0.3,0-0.4,0c-1.1,0.1-2.1,0.3-3.1,0.8c-0.5,0.2-1,0.4-1.5,0.5c-0.5-0.1-1-0.2-1.5-0.5
			C8.5,0.4,7.6,0.1,6.7,0.1H6.6C4.3,0.2,2.2,1.5,1.1,3.5z"/>
	</g>
	<g id="Group_1430" transform="translate(10.352)">
		<path id="Path_7188" class="st0" d="M5.5,0c-1.6,0.1-3,0.9-4,2.1C0.4,3.2-0.1,4.7,0,6.3c0,0.1,0.1,0.2,0.2,0.2c0.1,0,0.2,0,0.3,0
			C2,6.4,3.4,5.7,4.3,4.5c1-1.2,1.5-2.8,1.4-4.4C5.7,0.1,5.6,0,5.5,0z"/>
	</g>
</g>
</svg>
