<svg id="_843782_play_google_appstore_android_icon" data-name="843782_play_google_appstore_android_icon" xmlns="http://www.w3.org/2000/svg" width="25.648" height="27" viewBox="0 0 25.648 27">
  <path id="Path_8249" data-name="Path 8249" d="M25.349,11.291,10.776,3.51a2.791,2.791,0,0,0-2.289-.167L20.9,15.726Z" transform="translate(-6.624 -3.173)" fill="#49357c"/>
  <path id="Path_8250" data-name="Path 8250" d="M41.866,21.515l-4.2-2.241-4.734,4.721,4.734,4.721,4.2-2.241A2.81,2.81,0,0,0,41.866,21.515Z" transform="translate(-17.708 -10.495)" fill="#49357c"/>
  <path id="Path_8251" data-name="Path 8251" d="M5.806,4.879A2.771,2.771,0,0,0,5.08,6.766V28.132a2.772,2.772,0,0,0,.726,1.886l12.6-12.57Z" transform="translate(-5.08 -3.949)" fill="#49357c"/>
  <path id="Path_8252" data-name="Path 8252" d="M8.487,42.053a2.791,2.791,0,0,0,2.289-.167L25.349,34.1,20.9,29.67Z" transform="translate(-6.624 -15.223)" fill="#49357c"/>
</svg>
