<svg id="huawei-appgallery-seeklogo.com" xmlns="http://www.w3.org/2000/svg" width="27" height="27" viewBox="0 0 27 27">
  <rect id="Rectangle_218" data-name="Rectangle 218" width="27" height="27" rx="5" fill="#49357c"/>
  <path id="Path_26240" data-name="Path 26240" d="M18.363,5.589a.765.765,0,1,0,.769.765h0a.767.767,0,0,0-.769-.764Zm13.739,0a.765.765,0,1,0,.769.765h0a.767.767,0,0,0-.769-.764Z" transform="translate(-11.781 -3.9)" fill="#d8d8d8"/>
  <path id="Path_26241" data-name="Path 26241" d="M12.426,7.524c-.267.014-.254.4-.254.4a7.641,7.641,0,0,0,7.123,4.165,7.7,7.7,0,0,0,7.143-4.18s.057-.525-.5-.343A7.754,7.754,0,0,1,19.3,11.448a7.714,7.714,0,0,1-6.638-3.865.486.486,0,0,0-.233-.059Zm9.709,10.859-.816,2.431-.794-2.429h-.776L21,21.919h.6l.818-2.321.817,2.321h.609L25.1,18.386h-.756l-.8,2.429-.816-2.431Zm-4.335,0-1.584,3.532h.744l.306-.684.022-.051h1.645l.323.735h.765l-1.569-3.511-.014-.021Zm11.469,0v3.53h.72v-3.53Zm-20.635,0V21.92h.73V20.485H11.01V21.92h.73V18.386h-.73v1.426H9.364V18.386Zm6.482,0V20.41c0,.574-.29.881-.817.881s-.822-.315-.822-.906v-2h-.73V20.41a1.414,1.414,0,0,0,1.542,1.564,1.434,1.434,0,0,0,1.556-1.594V18.386Zm10.57,0v3.53H28.4v-.644h-2V20.4h1.326v-.644H26.406v-.723h1.926v-.644Zm-7.577.891.52,1.184.035.081h-1.1l.035-.081Z" transform="translate(-5.875 -5.175)" fill="#fff"/>
</svg>
